<svg id="Grupo_10816" data-name="Grupo 10816" xmlns="http://www.w3.org/2000/svg" xmlns:xlink="http://www.w3.org/1999/xlink" width="25.484" height="25.693" viewBox="0 0 25.484 25.693">
  <defs>
    <clipPath id="clip-path">
      <path id="Trazado_22654" data-name="Trazado 22654" d="M25.484-31.272H0V-56.965H25.484Z" transform="translate(0 56.965)" fill="#fff"/>
    </clipPath>
  </defs>
  <g id="Grupo_10798" data-name="Grupo 10798" clip-path="url(#clip-path)">
    <g id="Grupo_10795" data-name="Grupo 10795" transform="translate(0 15.687)">
      <path id="Trazado_22651" data-name="Trazado 22651" d="M-19.754-7.174l5.847-5.894a11.31,11.31,0,0,0,3.378,3.406l-5.847,5.894a2.374,2.374,0,0,1-3.379,0,2.422,2.422,0,0,1,0-3.406" transform="translate(20.454 13.068)" fill="#fff"/>
    </g>
    <g id="Grupo_10796" data-name="Grupo 10796" transform="translate(6.371 0)">
      <path id="Trazado_22652" data-name="Trazado 22652" d="M-42.376-11.727a9.6,9.6,0,0,1,9.557-9.636,9.6,9.6,0,0,1,9.557,9.636,9.6,9.6,0,0,1-9.557,9.635,9.6,9.6,0,0,1-9.557-9.635M-32.819-4.5a7.2,7.2,0,0,0,7.167-7.226,7.205,7.205,0,0,0-7.167-7.227,7.205,7.205,0,0,0-7.167,7.227A7.2,7.2,0,0,0-32.819-4.5" transform="translate(42.376 21.363)" fill="#fff"/>
    </g>
    <g id="Grupo_10797" data-name="Grupo 10797" transform="translate(15.927 4.015)">
      <path id="Trazado_22653" data-name="Trazado 22653" d="M5.575-6.841H3.982A4,4,0,0,0,0-10.856v-1.605a5.6,5.6,0,0,1,5.575,5.62" transform="translate(0 12.461)" fill="#fff"/>
    </g>
  </g>
</svg>
