<svg xmlns="http://www.w3.org/2000/svg" xmlns:xlink="http://www.w3.org/1999/xlink" width="31.985" height="27.695" viewBox="0 0 31.985 27.695">
  <defs>
    <clipPath id="clip-path">
      <path id="Trazado_22684" data-name="Trazado 22684" d="M0-6.458H31.985V-34.153H0Z" transform="translate(0 34.153)" fill="#554822"/>
    </clipPath>
  </defs>
  <g id="Grupo_10844" data-name="Grupo 10844" transform="translate(0 34.153)">
    <g id="Grupo_10843" data-name="Grupo 10843" transform="translate(0 -34.153)" clip-path="url(#clip-path)">
      <g id="Grupo_10838" data-name="Grupo 10838" transform="translate(3.21 3.172)">
        <path id="Trazado_22679" data-name="Trazado 22679" d="M-1.742,0Q1.671,0,5.085,0a.574.574,0,0,1,.551.28A.515.515,0,0,1,5.63.837a.6.6,0,0,1-.581.269c-.148,0-.3-.014-.443-.014H-8.6a.537.537,0,0,1-.531-.81A.551.551,0,0,1-8.59,0q3.361,0,6.722,0h.126" transform="translate(9.213 0.002)" fill="#554822"/>
      </g>
      <g id="Grupo_10839" data-name="Grupo 10839" transform="translate(0 0)">
        <path id="Trazado_22680" data-name="Trazado 22680" d="M-4.721-1.487V19.8a3.121,3.121,0,0,1-.33.034l-10.105-.015c-2.172,0-4.343-.024-6.515.007A3.155,3.155,0,0,1-24.9,17.213a8.649,8.649,0,0,1-.065-1.516q0-6.494,0-12.987,0-3.426,0-6.853A3.765,3.765,0,0,1-22.685-7.58a3.557,3.557,0,0,1,1.394-.285q7.985,0,15.969,0c.42,0,.624.195.609.575a.484.484,0,0,1-.4.472,1.389,1.389,0,0,1-.272.022l-14.381.018h-1.481a2.624,2.624,0,0,0-2.592,2.329,2.644,2.644,0,0,0,2.212,2.918A6.22,6.22,0,0,0-20.6-1.5q7.837,0,15.673,0c.062,0,.125.006.207.01M-10.034,8.658q0-3.15,0-6.3a.578.578,0,0,0-.3-.582.57.57,0,0,0-.643.118q-2.44,1.955-4.879,3.91a.755.755,0,0,1-.5.18c-.542,0-1.085,0-1.628,0-.352,0-.7-.006-1.057,0a.5.5,0,0,0-.564.559c0,.239-.016.478-.015.718,0,1.119.02,2.238.01,3.357,0,.466.186.681.693.68.86,0,1.72,0,2.579,0a.714.714,0,0,1,.482.169q2.43,1.951,4.866,3.892a.866.866,0,0,0,.286.169c.382.106.672-.161.673-.609q0-3.13,0-6.258" transform="translate(24.967 7.865)" fill="#554822"/>
      </g>
      <g id="Grupo_10840" data-name="Grupo 10840" transform="translate(27.541 7.944)">
        <path id="Trazado_22681" data-name="Trazado 22681" d="M-1.036-1.928A12.632,12.632,0,0,1-2.219,3.6,11.891,11.891,0,0,1-4.44,6.761a.99.99,0,0,1-.4.248A.481.481,0,0,1-5.4,6.765.556.556,0,0,1-5.324,6.1c.324-.371.673-.723.972-1.113A10.369,10.369,0,0,0-2.263.019,10.679,10.679,0,0,0-4.672-8.558c-.2-.238-.412-.461-.628-.682a.548.548,0,0,1-.019-.792.544.544,0,0,1,.777,0A11.8,11.8,0,0,1-1.224-3.6c.108.663.151,1.338.187,1.676" transform="translate(5.48 10.197)" fill="#554822"/>
      </g>
      <g id="Grupo_10841" data-name="Grupo 10841" transform="translate(24.987 9.834)">
        <path id="Trazado_22682" data-name="Trazado 22682" d="M-.849-1.574a9.147,9.147,0,0,1-2.6,6.394c-.138.143-.269.3-.513.287a.5.5,0,0,1-.463-.269.5.5,0,0,1,.062-.586c.391-.489.8-.97,1.143-1.489A7.509,7.509,0,0,0-2.021-.55,8.183,8.183,0,0,0-4.3-7.368a.538.538,0,0,1,.139-.907.519.519,0,0,1,.624.166A9.365,9.365,0,0,1-1.314-4.5,10.323,10.323,0,0,1-.849-1.574" transform="translate(4.491 8.323)" fill="#554822"/>
      </g>
      <g id="Grupo_10842" data-name="Grupo 10842" transform="translate(22.406 11.749)">
        <path id="Trazado_22683" data-name="Trazado 22683" d="M-.669-1.137A6.464,6.464,0,0,1-2.536,3.384a.785.785,0,0,1-.334.2.492.492,0,0,1-.56-.195A.506.506,0,0,1-3.449,2.8a4.723,4.723,0,0,1,.379-.451,5.4,5.4,0,0,0,1.277-4.01A5.392,5.392,0,0,0-3.29-5a.952.952,0,0,1-.225-.414.47.47,0,0,1,.272-.541.561.561,0,0,1,.675.139A12.274,12.274,0,0,1-1.513-4.4a5.773,5.773,0,0,1,.818,2.9c0,.119.017.238.026.357" transform="translate(3.537 6.011)" fill="#554822"/>
      </g>
    </g>
  </g>
</svg>
