<svg xmlns="http://www.w3.org/2000/svg" width="31.795" height="30.294" viewBox="0 0 31.795 30.294">
  <path id="rate" d="M720.285,113.732c.391-.79,1.03-.79,1.42,0l3.733,7.564a3.427,3.427,0,0,0,2.3,1.669l8.347,1.214c.873.126,1.071.734.439,1.35l-6.04,5.889a3.427,3.427,0,0,0-.878,2.7l1.427,8.313c.149.87-.368,1.246-1.149.836l-7.466-3.926a3.429,3.429,0,0,0-2.84,0l-7.466,3.926c-.781.41-1.3.034-1.149-.836l1.426-8.313a3.43,3.43,0,0,0-.878-2.7l-6.041-5.889c-.632-.616-.434-1.224.44-1.35l8.347-1.214a3.425,3.425,0,0,0,2.3-1.669Z" transform="translate(-705.097 -113.139)" fill="#554822"/>
</svg>
