<svg xmlns="http://www.w3.org/2000/svg" width="40" height="40" viewBox="0 0 40 40">
  <g id="Grupo_10862" data-name="Grupo 10862" transform="translate(-91.287 -128.505)">
    <path id="Trazado_22702" data-name="Trazado 22702" d="M111.288,168.505h0a20,20,0,0,1-20-20h0a20,20,0,0,1,20-20h0a20,20,0,0,1,20,20h0A20,20,0,0,1,111.288,168.505Z" fill="#554822"/>
    <g id="Grupo_10866" data-name="Grupo 10866" transform="translate(96.888 140.238)">
      <path id="Trazado_22703" data-name="Trazado 22703" d="M112.7,147.04h-7.688l.009,2.2H110.2a5.089,5.089,0,0,1-5.045,4.326,6.032,6.032,0,1,1,4.1-10.454l1.7-1.467a8.268,8.268,0,1,0-5.8,14.157c4.385,0,7.553-3.345,7.553-7.911Z" transform="translate(-96.888 -139.268)" fill="#fff"/>
      <path id="Trazado_22704" data-name="Trazado 22704" d="M123.747,147.131h-3.174v-3.174h-2.025v3.174h-3.174v2.025h3.174v3.174h2.025v-3.174h3.174Z" transform="translate(-94.949 -139.268)" fill="#fff"/>
    </g>
  </g>
</svg>
