<svg xmlns="http://www.w3.org/2000/svg" xmlns:xlink="http://www.w3.org/1999/xlink" width="29.242" height="32.567" viewBox="0 0 29.242 32.567">
  <defs>
    <clipPath id="clip-path">
      <path id="Trazado_22673" data-name="Trazado 22673" d="M0,21.323H29.242V-11.244H0Z" transform="translate(0 11.244)" fill="#554822"/>
    </clipPath>
  </defs>
  <g id="Grupo_10831" data-name="Grupo 10831" transform="translate(0 11.244)">
    <g id="Grupo_10830" data-name="Grupo 10830" transform="translate(0 -11.244)" clip-path="url(#clip-path)">
      <g id="Grupo_10828" data-name="Grupo 10828" transform="translate(-0.001 0.001)">
        <path id="Trazado_22671" data-name="Trazado 22671" d="M16.682,5.928a4.081,4.081,0,0,0-.5-1.222c-1.153-1.225-2.314-2.447-3.565-3.568a1.5,1.5,0,0,0-2.334.087C6.751,4.715,3.249,8.242-.3,11.718a2.02,2.02,0,0,0,0,3.056c.953.95,1.923,1.886,2.862,2.85a1.952,1.952,0,0,0,2.977-.038c1.489-1.573,3.053-3.07,4.582-4.6,1.958-1.964,3.922-3.922,5.857-5.906a5.955,5.955,0,0,0,.707-1.15M12.488-3.12c.067,0,.133-.006.2-.006A3.555,3.555,0,0,1,15.2-2.008c1.4,1.37,2.81,2.737,4.156,4.159a3.986,3.986,0,0,1-.148,5.631Q11.9,15.063,4.581,22.342a4.07,4.07,0,0,1-3.9,1.04,2.939,2.939,0,0,0-1.361.249c-2.332.782-4.646,1.61-6.977,2.387a.846.846,0,0,1-1.083-1.144c.669-2.022,1.37-4.032,2.059-6.045.217-.631.455-1.257.655-1.891.043-.13-.041-.3-.067-.449a3.964,3.964,0,0,1,.962-3.739q4.484-4.5,8.959-9c1.894-1.9,3.786-3.806,5.694-5.691A3.779,3.779,0,0,1,12.488-3.12" transform="translate(8.797 3.126)" fill="#554822"/>
      </g>
      <g id="Grupo_10829" data-name="Grupo 10829" transform="translate(1.744 30.241)">
        <path id="Trazado_22672" data-name="Trazado 22672" d="M11.238.007c0,.681.023,1.3-.02,1.923-.009.133-.249.3-.417.359a.637.637,0,0,1-.226.035c-.107,0-.223-.014-.33-.014L-5,2.3c-.863,0-.918-.052-.924-.909C-5.935-.225-6.016.01-4.533.007q7.408,0,14.818,0Z" transform="translate(5.926 0.004)" fill="#554822"/>
      </g>
    </g>
  </g>
</svg>
