<svg xmlns="http://www.w3.org/2000/svg" width="40" height="40" viewBox="0 0 40 40">
  <g id="Grupo_10861" data-name="Grupo 10861" transform="translate(-810.034 -205.336)">
    <circle id="Elipse_5" data-name="Elipse 5" cx="20" cy="20" r="20" transform="translate(810.034 205.336)" fill="#554822"/>
    <path id="Trazado_22701" data-name="Trazado 22701" d="M842.1,216.966a11.761,11.761,0,0,1-2.419.556,3.053,3.053,0,0,0,1.19-.851,3.441,3.441,0,0,0,.8-1.181c.02-.033.036-.076-.006-.1a.163.163,0,0,0-.128.009,14.3,14.3,0,0,1-2.868.885.219.219,0,0,1-.2-.043,2.162,2.162,0,0,0-.252-.206,5.364,5.364,0,0,0-1.388-.687,5.891,5.891,0,0,0-2.13-.277,6.047,6.047,0,0,0-2.021.461,5.144,5.144,0,0,0-1.63,1.074,3.8,3.8,0,0,0-.974,1.574,3.457,3.457,0,0,0-.051,1.661c.015.093,0,.105-.1.093-3.939-.473-7.2-1.61-9.853-4.046-.115-.106-.177-.106-.271.008-1.16,1.4-.6,3.655.851,4.763.193.147.392.295.606.429a5.975,5.975,0,0,1-1.9-.429c-.115-.059-.173-.026-.183.08a2.062,2.062,0,0,0,.031.455,4.335,4.335,0,0,0,3.115,3.25,3.569,3.569,0,0,0,.631.156,6.972,6.972,0,0,1-1.864.046c-.136-.021-.188.034-.136.139a5.152,5.152,0,0,0,3.918,2.647c.177.025.356.025.534.059-.011.013-.022.013-.032.025a6.8,6.8,0,0,1-2.676,1.145,11.722,11.722,0,0,1-4.063.419c-.219-.026-.265-.024-.323,0s-.009.072.062.118c.278.148.559.278.846.4a15.444,15.444,0,0,0,2.717.877c4.881,1.087,10.38.288,14.044-2.65a10.641,10.641,0,0,0,3.888-8.676c0-.125.182-.194.29-.259a8.726,8.726,0,0,0,1.912-1.6.427.427,0,0,0,.126-.308v-.016C842.2,216.915,842.2,216.93,842.1,216.966Z" transform="translate(0 2.303)" fill="#fff"/>
  </g>
</svg>
