<svg xmlns="http://www.w3.org/2000/svg" width="56.422" height="56.422" viewBox="0 0 56.422 56.422">
  <g id="Grupo_10859" data-name="Grupo 10859" transform="translate(-802.772 -360.9)">
    <g id="Grupo_10879" data-name="Grupo 10879">
      <circle id="Elipse_3" data-name="Elipse 3" cx="20" cy="20" r="20" transform="matrix(0.654, -0.756, 0.756, 0.654, 802.772, 391.147)" fill="#554822"/>
      <path id="Trazado_22696" data-name="Trazado 22696" d="M818.167,398.762l1.617-6.032a11.165,11.165,0,1,1,4.447,4.408Zm6.365-3.885.381.227a9.061,9.061,0,1,0-3.1-3.073l.235.385-.9,3.368Z" transform="translate(1.48 1.384)" fill="#fff"/>
    </g>
    <path id="Trazado_22697" data-name="Trazado 22697" d="M833.145,388.367a1.871,1.871,0,0,0-1.595-.36c-.414.17-.68.818-.947,1.149a.4.4,0,0,1-.514.112,7.22,7.22,0,0,1-3.605-3.089.443.443,0,0,1,.055-.6,2.429,2.429,0,0,0,.656-1.063,2.326,2.326,0,0,0-.293-1.258,2.984,2.984,0,0,0-.93-1.4,1.274,1.274,0,0,0-1.382.206,2.805,2.805,0,0,0-.973,2.224,3.116,3.116,0,0,0,.088.706,5.864,5.864,0,0,0,.676,1.56,12.275,12.275,0,0,0,.707,1.074,10.909,10.909,0,0,0,3.066,2.847,9.205,9.205,0,0,0,1.912.909,4.246,4.246,0,0,0,2.225.352,2.7,2.7,0,0,0,2.018-1.5,1.31,1.31,0,0,0,.093-.766C834.286,388.936,833.571,388.623,833.145,388.367Z" transform="translate(2.004 1.914)" fill="#fff" fill-rule="evenodd"/>
  </g>
</svg>
